<svg id="Layer_1" enable-background="new 0 0 512.029 512.029" height="512" viewBox="0 0 512.029 512.029" width="512" xmlns="http://www.w3.org/2000/svg"><g><path d="m344.014 480.014h-176c-4.934 0-8.709-4.448-7.89-9.32 4.531-27.182 3.102-18.612 8-48 .64-3.85 3.98-6.68 7.89-6.68h160c3.91 0 7.25 2.83 7.89 6.68 4.898 29.389 3.471 20.83 8 48 .818 4.866-2.949 9.32-7.89 9.32z" fill="#edebfd"/><path d="m344.014 480.014h-48c4.934 0 8.709-4.448 7.89-9.32l-8-48c-.64-3.85-3.98-6.68-7.89-6.68h48c3.91 0 7.25 2.83 7.89 6.68l8 48c.818 4.866-2.949 9.32-7.89 9.32z" fill="#d2d2fc"/><path d="m362.014 464.014h-212c-12.131 0-22 9.869-22 22v18c0 4.418 3.582 8 8 8h240c4.418 0 8-3.582 8-8v-18c0-12.131-9.869-22-22-22z" fill="#edebfd"/><path d="m384.014 486.014v18c0 4.42-3.58 8-8 8h-48c4.42 0 8-3.58 8-8v-18c0-12.13-9.87-22-22-22h48c12.13 0 22 9.87 22 22z" fill="#d2d2fc"/><path d="m348.124 448.014h-184.22l4.22-25.32c.64-3.85 3.98-6.68 7.89-6.68h160c3.91 0 7.25 2.83 7.89 6.68z" fill="#d2d2fc"/><path d="m488.014 352.014h-464c-4.418 0-8 3.582-8 8v40c0 17.645 14.355 32 32 32h416c17.645 0 32-14.355 32-32v-40c0-4.418-3.582-8-8-8z" fill="#9da0df"/><path d="m496.014 360.014v40c0 17.65-14.36 32-32 32h-48c17.64 0 32-14.35 32-32v-40c0-4.42-3.58-8-8-8h48c4.42 0 8 3.58 8 8z" fill="#8286c6"/><path d="m256.014 400.014c-6.432 0-10.174-7.22-6.65-12.44 3.907-5.926 13.136-4.06 14.49 2.88 1.014 4.682-2.626 9.56-7.84 9.56z" fill="#edebfd"/><path d="m488.014 104.014h-464c-4.418 0-8 3.582-8 8v248c0 4.418 3.582 8 8 8h464c4.418 0 8-3.582 8-8v-248c0-4.418-3.582-8-8-8z" fill="#edebfd"/><path d="m496.014 112.014v248c0 4.42-3.58 8-8 8h-48c4.42 0 8-3.58 8-8v-248c0-4.42-3.58-8-8-8h48c4.42 0 8 3.58 8 8z" fill="#d2d2fc"/><path d="m456.014 104.014h-400c-4.418 0-8 3.582-8 8v216c0 4.418 3.582 8 8 8h400c4.418 0 8-3.582 8-8v-216c0-4.418-3.582-8-8-8z" fill="#c8effd"/><path d="m464.014 112.014v216c0 4.42-3.58 8-8 8h-48c4.42 0 8-3.58 8-8v-216c0-4.42-3.58-8-8-8h48c4.42 0 8 3.58 8 8z" fill="#a0e1fd"/><path d="m112.014 104.014c0 16.818.131 18.33-.41 22.78-3.36 27.7-27.01 49.22-55.59 49.22-28.59 0-52.25-21.53-55.59-49.24-.543-4.451-.41-6.007-.41-22.76 0-4.42 3.58-8 8-8h96c4.42 0 8 3.58 8 8z" fill="#f1cc76"/><path d="m112.014 104.014v16c0 41.3-43.208 68.127-80 50.59 18.9-9 32-28.29 32-50.59v-16c0-4.42-3.58-8-8-8h48c4.42 0 8 3.58 8 8z" fill="#ebb15d"/><path d="m512.014 104.014c0 16.809.131 18.325-.41 22.76-3.34 27.71-27 49.24-55.59 49.24-28.58 0-52.23-21.52-55.59-49.22-.546-4.491-.41-6.082-.41-22.78 0-4.42 3.58-8 8-8h96c4.42 0 8 3.58 8 8z" fill="#f1cc76"/><path d="m512.014 104.014v16c0 39.079-39.336 66.362-76 52.31 21.03-8.07 36-28.47 36-52.31v-16c0-4.42-3.58-8-8-8h40c4.42 0 8 3.58 8 8z" fill="#ebb15d"/><path d="m512.014 104.014c0 16.809.131 18.325-.41 22.76-5.152 1.724.641 1.24-103.59 1.24-2.65 0-5.2-.43-7.59-1.22-.546-4.491-.41-6.082-.41-22.78 0-4.42 3.58-8 8-8h96c4.42 0 8 3.58 8 8z" fill="#ebb15d"/><path d="m511.604 101.485-28.351-85.065c-3.277-9.813-12.427-16.406-22.769-16.406h-68.47c-4.934 0-8.703 4.434-7.892 9.315l16 96c.644 3.857 3.98 6.685 7.892 6.685h96c5.454 0 9.315-5.351 7.59-10.529z" fill="#f1cc76"/><path d="m504.014 112.014h-40c5.468 0 9.306-5.36 7.59-10.53l-28.35-85.06c-3.28-9.82-12.43-16.41-22.77-16.41h40c10.34 0 19.49 6.59 22.77 16.41l28.35 85.06c1.716 5.17-2.122 10.53-7.59 10.53z" fill="#ebb15d"/><path d="m112.014 104.014c0 16.818.131 18.33-.41 22.78-5.17 1.709 1.045 1.22-103.59 1.22-2.6 0-5.17-.43-7.59-1.24-.543-4.451-.41-6.007-.41-22.76 0-4.42 3.58-8 8-8h96c4.42 0 8 3.58 8 8z" fill="#ebb15d"/><path d="m120.014.014h-68.47c-10.342 0-19.491 6.593-22.771 16.411l-28.35 85.06c-1.723 5.174 2.132 10.529 7.59 10.529h96c3.911 0 7.248-2.827 7.892-6.685l16-96c.811-4.868-2.942-9.315-7.891-9.315z" fill="#f1cc76"/><path d="m127.905 9.334-16 96c-.64 3.85-3.98 6.68-7.89 6.68h-49c3.91 0 7.25-2.83 7.89-6.68l16-96c.818-4.866-2.949-9.32-7.89-9.32h49c4.934 0 8.708 4.448 7.89 9.32z" fill="#ebb15d"/><g fill="#7acef9"><path d="m416.014 216.014h-168c-4.418 0-8-3.582-8-8s3.582-8 8-8h168c4.418 0 8 3.582 8 8s-3.582 8-8 8z"/><path d="m416.014 256.014h-168c-4.418 0-8-3.582-8-8s3.582-8 8-8h168c4.418 0 8 3.582 8 8s-3.582 8-8 8z"/><path d="m360.014 296.014h-112c-4.418 0-8-3.582-8-8s3.582-8 8-8h112c4.418 0 8 3.582 8 8s-3.582 8-8 8z"/></g><path d="m128.02 248.016c-5.218 0-9.027-4.905-7.767-9.942l8-32c1.071-4.286 5.416-6.891 9.701-5.821 4.286 1.072 6.893 5.415 5.82 9.702l-8 32c-.907 3.634-4.169 6.061-7.754 6.061z" fill="#aa7569"/><path d="m176.009 248.016c-3.585 0-6.847-2.426-7.755-6.062l-8-32c-1.072-4.287 1.534-8.63 5.82-9.702 4.294-1.071 8.631 1.535 9.701 5.821l8 32c1.261 5.043-2.554 9.943-7.766 9.943z" fill="#aa7569"/><path d="m208.014 104.014c0 16.934.127 18.343-.41 22.74-3.33 27.71-26.99 49.26-55.59 49.26-28.59 0-52.24-21.53-55.59-49.23-.546-4.492-.41-6.079-.41-22.77 0-4.42 3.58-8 8-8h96c4.42 0 8 3.58 8 8z" fill="#e48c9b"/><path d="m208.014 104.014v16c0 41.3-43.208 68.127-80 50.59 18.9-9 32-28.29 32-50.59v-16c0-4.42-3.58-8-8-8h48c4.42 0 8 3.58 8 8z" fill="#cc5b6f"/><path d="m416.014 104.014c0 16.81.132 18.314-.41 22.77-3.35 27.7-27 49.23-55.59 49.23-28.6 0-52.26-21.55-55.59-49.26-.546-4.472-.41-6.041-.41-22.74 0-4.42 3.58-8 8-8h96c4.42 0 8 3.58 8 8z" fill="#e48c9b"/><path d="m416.014 104.014v16c0 39.079-39.336 66.362-76 52.31 21.03-8.07 36-28.47 36-52.31v-16c0-4.42-3.58-8-8-8h40c4.42 0 8 3.58 8 8z" fill="#cc5b6f"/><path d="m416.014 104.014c0 16.81.132 18.314-.41 22.77-5.168 1.73.572 1.23-103.59 1.23-2.64 0-5.19-.44-7.59-1.26-.546-4.472-.41-6.041-.41-22.74 0-4.42 3.58-8 8-8h96c4.42 0 8 3.58 8 8z" fill="#cc5b6f"/><path d="m415.906 102.699-16-96c-.644-3.857-3.98-6.685-7.892-6.685h-88c-4.677 0-8.361 4.001-7.973 8.665l8 96c.346 4.146 3.812 7.335 7.973 7.335h96c4.935 0 8.704-4.433 7.892-9.315z" fill="#e48c9b"/><path d="m408.014 112.014h-40c4.934 0 8.709-4.448 7.89-9.32l-16-96c-.64-3.85-3.98-6.68-7.89-6.68h40c3.91 0 7.25 2.83 7.89 6.68l16 96c.818 4.866-2.949 9.32-7.89 9.32z" fill="#cc5b6f"/><path d="m208.014 104.014c0 16.934.127 18.343-.41 22.74-5.163 1.764 1.26 1.26-103.59 1.26-2.62 0-5.17-.42-7.59-1.23-.546-4.492-.41-6.079-.41-22.77 0-4.42 3.58-8 8-8h96c4.42 0 8 3.58 8 8z" fill="#cc5b6f"/><path d="m208.014.014h-88c-3.911 0-7.248 2.827-7.892 6.685l-16 96c-.809 4.868 2.943 9.315 7.892 9.315h96c4.161 0 7.627-3.189 7.973-7.335l8-96c.388-4.661-3.293-8.665-7.973-8.665z" fill="#e48c9b"/><path d="m215.984 8.674-8 96c-.34 4.15-3.81 7.34-7.97 7.34h-48c4.16 0 7.63-3.19 7.97-7.34l8-96c.397-4.638-3.278-8.66-7.97-8.66h48c4.693 0 8.367 4.022 7.97 8.66z" fill="#cc5b6f"/><path d="m320.014 104.014c0 8.78.304 14.529-1.83 23.19-6.83 27.99-32.11 48.81-62.17 48.81s-55.34-20.82-62.17-48.81c-2.134-8.658-1.83-14.438-1.83-23.19 0-4.42 3.58-8 8-8h112c4.42 0 8 3.58 8 8z" fill="#f1cc76"/><path d="m320.014 104.014v8c0 43.693-43.01 74.41-84 60.79 25.53-8.41 44-32.48 44-60.79v-8c0-4.42-3.58-8-8-8h40c4.42 0 8 3.58 8 8z" fill="#ebb15d"/><path d="m320.014 104.014c0 8.78.304 14.529-1.83 23.19-4.367 1.157 3.933.81-118.17.81-2.09 0-4.17-.28-6.17-.81-2.134-8.658-1.83-14.438-1.83-23.19 0-4.42 3.58-8 8-8h112c4.42 0 8 3.58 8 8z" fill="#ebb15d"/><path d="m319.987 103.35-8-96c-.346-4.146-3.812-7.335-7.973-7.335h-96c-4.161 0-7.627 3.189-7.973 7.335l-8 96c-.388 4.661 3.293 8.665 7.973 8.665h112c4.677-.001 8.361-4.002 7.973-8.665z" fill="#f1cc76"/><path d="m312.014 112.014h-48c4.692 0 8.367-4.022 7.97-8.66l-8-96c-.34-4.15-3.81-7.34-7.97-7.34h48c4.16 0 7.63 3.19 7.97 7.34l8 96c.397 4.638-3.277 8.66-7.97 8.66z" fill="#ebb15d"/><path d="m192.014 232.014h-80c-4.934 0-8.703 4.434-7.892 9.315l8 48c.644 3.857 3.98 6.685 7.892 6.685h64c3.911 0 7.248-2.827 7.892-6.685l8-48c.81-4.868-2.943-9.315-7.892-9.315z" fill="#f1cc76"/><path d="m199.905 241.334-8 48c-.64 3.85-3.98 6.68-7.89 6.68h-32c3.91 0 7.25-2.83 7.89-6.68l8-48c.818-4.866-2.949-9.32-7.89-9.32h32c4.934 0 8.708 4.448 7.89 9.32z" fill="#ebb15d"/><path d="m200.014 248.014h-96c-4.418 0-8-3.582-8-8s3.582-8 8-8h96c4.418 0 8 3.582 8 8s-3.582 8-8 8z" fill="#ebb15d"/></g></svg>